<?xml version="1.0" encoding="UTF-8"?>
<!DOCTYPE svg PUBLIC "-//W3C//DTD SVG 1.1//EN" "http://www.w3.org/Graphics/SVG/1.1/DTD/svg11.dtd">
<svg version="1.2" width="180.62mm" height="180.62mm" viewBox="0 0 18062 18062" preserveAspectRatio="xMidYMid" fill-rule="evenodd" stroke-width="28.222" stroke-linejoin="round" xmlns="http://www.w3.org/2000/svg" xmlns:ooo="http://xml.openoffice.org/svg/export" xmlns:xlink="http://www.w3.org/1999/xlink" xmlns:presentation="http://sun.com/xmlns/staroffice/presentation" xmlns:smil="http://www.w3.org/2001/SMIL20/" xmlns:anim="urn:oasis:names:tc:opendocument:xmlns:animation:1.0" xml:space="preserve">
 <defs class="ClipPathGroup">
  <clipPath id="presentation_clip_path" clipPathUnits="userSpaceOnUse">
   <rect x="0" y="0" width="18062" height="18062"/>
  </clipPath>
 </defs>
 <defs class="TextShapeIndex">
  <g ooo:slide="id1" ooo:id-list="id3 id4 id5 id6 id7 id8 id9 id10 id11 id12"/>
 </defs>
 <defs class="EmbeddedBulletChars">
  <g id="bullet-char-template(57356)" transform="scale(0.00048828125,-0.00048828125)">
   <path d="M 580,1141 L 1163,571 580,0 -4,571 580,1141 Z"/>
  </g>
  <g id="bullet-char-template(57354)" transform="scale(0.00048828125,-0.00048828125)">
   <path d="M 8,1128 L 1137,1128 1137,0 8,0 8,1128 Z"/>
  </g>
  <g id="bullet-char-template(10146)" transform="scale(0.00048828125,-0.00048828125)">
   <path d="M 174,0 L 602,739 174,1481 1456,739 174,0 Z M 1358,739 L 309,1346 659,739 1358,739 Z"/>
  </g>
  <g id="bullet-char-template(10132)" transform="scale(0.00048828125,-0.00048828125)">
   <path d="M 2015,739 L 1276,0 717,0 1260,543 174,543 174,936 1260,936 717,1481 1274,1481 2015,739 Z"/>
  </g>
  <g id="bullet-char-template(10007)" transform="scale(0.00048828125,-0.00048828125)">
   <path d="M 0,-2 C -7,14 -16,27 -25,37 L 356,567 C 262,823 215,952 215,954 215,979 228,992 255,992 264,992 276,990 289,987 310,991 331,999 354,1012 L 381,999 492,748 772,1049 836,1024 860,1049 C 881,1039 901,1025 922,1006 886,937 835,863 770,784 769,783 710,716 594,584 L 774,223 C 774,196 753,168 711,139 L 727,119 C 717,90 699,76 672,76 641,76 570,178 457,381 L 164,-76 C 142,-110 111,-127 72,-127 30,-127 9,-110 8,-76 1,-67 -2,-52 -2,-32 -2,-23 -1,-13 0,-2 Z"/>
  </g>
  <g id="bullet-char-template(10004)" transform="scale(0.00048828125,-0.00048828125)">
   <path d="M 285,-33 C 182,-33 111,30 74,156 52,228 41,333 41,471 41,549 55,616 82,672 116,743 169,778 240,778 293,778 328,747 346,684 L 369,508 C 377,444 397,411 428,410 L 1163,1116 C 1174,1127 1196,1133 1229,1133 1271,1133 1292,1118 1292,1087 L 1292,965 C 1292,929 1282,901 1262,881 L 442,47 C 390,-6 338,-33 285,-33 Z"/>
  </g>
  <g id="bullet-char-template(9679)" transform="scale(0.00048828125,-0.00048828125)">
   <path d="M 813,0 C 632,0 489,54 383,161 276,268 223,411 223,592 223,773 276,916 383,1023 489,1130 632,1184 813,1184 992,1184 1136,1130 1245,1023 1353,916 1407,772 1407,592 1407,412 1353,268 1245,161 1136,54 992,0 813,0 Z"/>
  </g>
  <g id="bullet-char-template(8226)" transform="scale(0.00048828125,-0.00048828125)">
   <path d="M 346,457 C 273,457 209,483 155,535 101,586 74,649 74,723 74,796 101,859 155,911 209,963 273,989 346,989 419,989 480,963 531,910 582,859 608,796 608,723 608,648 583,586 532,535 482,483 420,457 346,457 Z"/>
  </g>
  <g id="bullet-char-template(8211)" transform="scale(0.00048828125,-0.00048828125)">
   <path d="M -4,459 L 1135,459 1135,606 -4,606 -4,459 Z"/>
  </g>
 </defs>
 <defs class="TextEmbeddedBitmaps"/>
 <g>
  <g id="id2" class="Master_Slide">
   <g id="bg-id2" class="Background"/>
   <g id="bo-id2" class="BackgroundObjects"/>
  </g>
 </g>
 <g class="SlideGroup">
  <g>
   <g id="id1" class="Slide" clip-path="url(#presentation_clip_path)">
    <g class="Page">
     <g class="com.sun.star.drawing.ClosedBezierShape">
      <g id="id3">
       <rect class="BoundingBox" stroke="none" fill="none" x="3124" y="11816" width="10600" height="1185"/>
       <path fill="rgb(78,77,80)" stroke="none" d="M 3746,13000 C 3403,13000 3124,12734 3124,12407 3124,12081 3403,11816 3746,11816 L 13102,11816 C 13445,11816 13723,12081 13723,12407 13723,12734 13445,13000 13102,13000 L 3746,13000 Z"/>
      </g>
     </g>
     <g class="com.sun.star.drawing.ClosedBezierShape">
      <g id="id4">
       <rect class="BoundingBox" stroke="none" fill="none" x="3101" y="4100" width="10600" height="1186"/>
       <path fill="rgb(78,77,80)" stroke="none" d="M 3723,5285 C 3380,5285 3101,5018 3101,4691 3101,4364 3380,4100 3723,4100 L 13079,4100 C 13422,4100 13700,4364 13700,4691 13700,5018 13422,5285 13079,5285 L 3723,5285 Z"/>
      </g>
     </g>
     <g class="com.sun.star.drawing.ClosedBezierShape">
      <g id="id5">
       <rect class="BoundingBox" stroke="none" fill="none" x="3100" y="3489" width="1472" height="10112"/>
       <path fill="rgb(153,153,255)" stroke="none" d="M 4571,13007 C 4571,13335 4241,13600 3835,13600 3430,13600 3100,13335 3100,13007 L 3100,4081 C 3100,3754 3430,3489 3835,3489 4241,3489 4571,3754 4571,4081 L 4571,13007 Z"/>
      </g>
     </g>
     <g class="com.sun.star.drawing.ClosedBezierShape">
      <g id="id6">
       <rect class="BoundingBox" stroke="none" fill="none" x="5407" y="3423" width="1472" height="10112"/>
       <path fill="rgb(153,153,255)" stroke="none" d="M 6878,12941 C 6878,13269 6548,13534 6142,13534 5737,13534 5408,13269 5408,12941 L 5408,4015 C 5408,3688 5737,3423 6142,3423 6548,3423 6878,3688 6878,4015 L 6878,12941 Z"/>
      </g>
     </g>
     <g class="com.sun.star.drawing.ClosedBezierShape">
      <g id="id7">
       <rect class="BoundingBox" stroke="none" fill="none" x="7779" y="3423" width="1472" height="10112"/>
       <path fill="rgb(153,153,255)" stroke="none" d="M 9250,12941 C 9250,13269 8921,13534 8515,13534 8109,13534 7780,13269 7780,12941 L 7780,4015 C 7780,3688 8108,3423 8515,3423 8921,3423 9250,3688 9250,4015 L 9250,12941 Z"/>
      </g>
     </g>
     <g class="com.sun.star.drawing.ClosedBezierShape">
      <g id="id8">
       <rect class="BoundingBox" stroke="none" fill="none" x="10151" y="3423" width="1471" height="10112"/>
       <path fill="rgb(153,153,255)" stroke="none" d="M 11621,12941 C 11621,13269 11292,13534 10886,13534 10480,13534 10151,13269 10151,12941 L 10151,4015 C 10151,3688 10480,3423 10886,3423 11292,3423 11621,3688 11621,4015 L 11621,12941 Z"/>
      </g>
     </g>
     <g class="com.sun.star.drawing.ClosedBezierShape">
      <g id="id9">
       <rect class="BoundingBox" stroke="none" fill="none" x="12523" y="3423" width="1470" height="10112"/>
       <path fill="rgb(153,153,255)" stroke="none" d="M 13992,12941 C 13992,13269 13663,13534 13257,13534 12851,13534 12523,13269 12523,12941 L 12523,4015 C 12523,3688 12851,3423 13257,3423 13663,3423 13992,3688 13992,4015 L 13992,12941 Z"/>
      </g>
     </g>
     <g class="com.sun.star.drawing.ClosedBezierShape">
      <g id="id10">
       <rect class="BoundingBox" stroke="none" fill="none" x="1116" y="12211" width="15883" height="2530"/>
       <path fill="rgb(109,110,112)" stroke="none" d="M 14931,12212 L 13259,12212 13253,12759 14931,12759 C 15703,12759 16320,13252 16321,13852 L 16321,14740 16998,14740 16998,13852 C 16997,12942 16068,12214 14931,12212 Z M 1116,13852 L 1116,14740 1794,14740 1794,13852 C 1795,13252 2411,12759 3182,12759 L 3426,12759 3454,12211 3182,12211 C 2046,12214 1117,12942 1116,13852 Z"/>
      </g>
     </g>
     <g class="com.sun.star.drawing.PolyPolygonShape">
      <g id="id11">
       <rect class="BoundingBox" stroke="none" fill="none" x="14934" y="11356" width="553" height="994"/>
       <path fill="rgb(109,110,112)" stroke="none" d="M 15210,12349 L 14934,12349 14934,11357 15486,11357 15486,12349 15210,12349 Z"/>
      </g>
     </g>
     <g class="com.sun.star.drawing.ClosedBezierShape">
      <g id="id12">
       <rect class="BoundingBox" stroke="none" fill="none" x="14489" y="10811" width="1442" height="718"/>
       <path fill="rgb(109,110,112)" stroke="none" d="M 15930,11170 C 15930,11369 15731,11528 15485,11528 L 14934,11528 C 14687,11528 14489,11369 14489,11170 14489,10971 14687,10811 14934,10811 L 15485,10811 C 15731,10811 15930,10971 15930,11170 Z"/>
      </g>
     </g>
    </g>
   </g>
  </g>
 </g>
</svg>