<svg version="1.1" xmlns="http://www.w3.org/2000/svg" xmlns:xlink="http://www.w3.org/1999/xlink" xmlns:a="http://ns.adobe.com/AdobeSVGViewerExtensions/3.0/" x="0px" y="0px" width="512px" height="512px" viewBox="-31.636 -97.025 512 512" overflow="visible" enable-background="new -31.636 -97.025 512 512" xml:space="preserve">
<defs>
</defs>
<path fill="#4E4D50" d="M74.559,271.436c-9.717,0-17.627-7.526-17.627-16.778l0,0c0-9.251,7.91-16.751,17.627-16.751h265.194  c9.718,0,17.601,7.5,17.601,16.751l0,0c0,9.252-7.883,16.778-17.601,16.778H74.559z"/>
<path fill="#4E4D50" d="M74.559,54.276c-9.717,0-17.627-7.554-17.627-16.805l0,0c0-9.279,7.91-16.751,17.627-16.751h265.194  c9.718,0,17.601,7.472,17.601,16.751l0,0c0,9.251-7.883,16.805-17.601,16.805H74.559z"/>
<path fill="#6D6E70" d="M96.072,269.767c0,9.306-9.334,16.806-20.829,16.806l0,0c-11.496,0-20.83-7.5-20.83-16.806V16.778  C54.413,7.5,63.747,0,75.243,0l0,0c11.495,0,20.829,7.5,20.829,16.778V269.767z"/>
<path fill="#6D6E70" d="M163.294,269.767c0,9.306-9.333,16.806-20.829,16.806l0,0c-11.496,0-20.802-7.5-20.802-16.806V16.778  C121.664,7.5,130.969,0,142.465,0l0,0c11.496,0,20.829,7.5,20.829,16.778V269.767z"/>
<path fill="#6D6E70" d="M230.517,269.767c0,9.306-9.306,16.806-20.801,16.806l0,0c-11.523,0-20.829-7.5-20.829-16.806V16.778  C188.886,7.5,198.192,0,209.715,0l0,0c11.496,0,20.801,7.5,20.801,16.778V269.767z"/>
<path fill="#6D6E70" d="M297.739,269.767c0,9.306-9.306,16.806-20.802,16.806l0,0c-11.522,0-20.829-7.5-20.829-16.806V16.778  C256.108,7.5,265.415,0,276.938,0l0,0c11.496,0,20.802,7.5,20.802,16.778V269.767z"/>
<path fill="#6D6E70" d="M364.962,269.767c0,9.306-9.306,16.806-20.802,16.806l0,0c-11.522,0-20.802-7.5-20.802-16.806V16.778  C323.358,7.5,332.638,0,344.16,0l0,0c11.496,0,20.802,7.5,20.802,16.778V269.767z"/>
<path fill="#6D6E70" d="M391.594,249.129h-47.406l-0.163,15.492h47.569c21.869,0,39.359,13.985,39.387,30.983v25.154h19.188v-25.154  C450.141,269.822,423.81,249.184,391.594,249.129z M0,295.605v25.154h19.214v-25.154c0.027-16.998,17.49-30.983,39.359-30.983h6.897  l0.793-15.52h-7.691C26.358,249.184,0.027,269.822,0,295.605z"/>
<rect x="391.677" y="224.906" fill="#6D6E70" width="15.629" height="28.082"/>
<path fill="#6D6E70" d="M419.896,219.596c0,5.639-5.638,10.154-12.59,10.154h-15.629c-6.979,0-12.592-4.516-12.592-10.154l0,0  c0-5.611,5.612-10.154,12.592-10.154h15.629C414.258,209.442,419.896,213.985,419.896,219.596L419.896,219.596z"/>
</svg>
